#!OML:ASF F:\VICON\USERDATA\INSTALL\Justin_Nancy\Justin_Nancy.ASF
:FULLY-SPECIFIED
:DEGREES
151
root 6.98528 17.0877 18.0696 10.4024 40.5204 6.29098
lowerback 10.6912 -0.683777 -5.36322
upperback 1.40216 -1.4589 0.990945
thorax -4.36785 -0.617163 4.27038
lowerneck -21.454 -2.5612 -7.05471
upperneck 11.6341 -2.20684 4.85005
head 7.18315 -0.919096 2.46928
rclavicle 4.87022e-014 -7.95139e-015
rhumerus -50.2608 14.3154 -95.2648
rradius 110.439
rwrist -12.1849
rhand -11.4318 23.2738
rfingers 7.12502
rthumb 14.6045 -6.19199
lclavicle 4.87022e-014 -7.95139e-015
lhumerus -28.6741 -8.29114 84.5187
lradius 114.097
lwrist 26.9111
lhand -18.4393 10.0187
lfingers 7.12502
lthumb 7.84633 39.8531
rfemur -38.5926 -8.95455 17.3062
rtibia 82.3846
rfoot 1.70226 0.293429
rtoes -8.66642
lfemur -7.05949 -3.55493 -30.4281
ltibia 38.9075
lfoot -14.4976 2.9101
ltoes -17.9287
152
root 7.21028 17.2048 18.3851 10.1617 40.0477 5.62534
lowerback 10.2615 -0.744776 -5.04834
upperback 1.29897 -1.47535 1.21359
thorax -4.23731 -0.632083 4.31838
lowerneck -21.4042 -2.48218 -7.03094
upperneck 11.7976 -2.1089 4.81218
head 7.22218 -0.876735 2.46613
rclavicle 1.35174e-014 -2.70347e-014
rhumerus -51.0859 14.0951 -95.1953
rradius 110.955
rwrist -12.6204
rhand -11.4794 23.0519
rfingers 7.12502
rthumb 14.5586 -6.41721
lclavicle 1.35174e-014 -2.70347e-014
lhumerus -28.7673 -8.44466 84.7167
lradius 114.211
lwrist 26.7904
lhand -18.2911 9.84479
lfingers 7.12502
lthumb 7.98935 39.6738
rfemur -39.189 -8.21379 18.2988
rtibia 79.1855
rfoot 0.832953 0.444921
rtoes -9.86961
lfemur -5.71937 -3.50865 -29.8387
ltibia 38.0163
lfoot -11.817 2.49535
ltoes -16.1847
153
root 7.43563 17.3085 18.6814 10.2413 39.5035 5.4745
lowerback 9.99992 -0.798604 -4.92092
upperback 1.16247 -1.52207 1.26784
thorax -4.23149 -0.655248 4.30433
lowerneck -21.6599 -2.51948 -7.28622
upperneck 12.3331 -2.12229 5.05724
head 7.44797 -0.872558 2.59154
rclavicle -8.20981e-014 -5.56597e-015
rhumerus -51.8916 13.9186 -95.2729
rradius 111.39
rwrist -13.2862
rhand -11.5034 22.9399
rfingers 7.12502
rthumb 14.5355 -6.53087
lclavicle -8.20981e-014 -5.56597e-015
lhumerus -29.2284 -8.68335 84.7298
lradius 114.558
lwrist 26.6923
lhand -17.8464 9.56203
lfingers 7.12502
lthumb 8.41857 39.3742
rfemur -39.6426 -7.49036 18.6858
rtibia 75.7199
rfoot -0.0837455 0.610773
rtoes -9.14077
lfemur -4.50576 -3.50273 -29.7346
ltibia 37.22
lfoot -8.95474 1.95242
ltoes -14.3846
154
root 7.65264 17.4021 18.9715 10.2365 38.9045 5.40298
lowerback 9.99394 -0.83042 -4.98141
upperback 1.07299 -1.56759 1.39328
thorax -4.31186 -0.671921 4.47829
lowerneck -21.9229 -2.52524 -7.46907
upperneck 12.7841 -2.07012 5.07274
head 7.63996 -0.855811 2.63661
rclavicle -6.12257e-014 -2.3059e-014
rhumerus -52.3274 13.9665 -95.0084
rradius 111.603
rwrist -13.9293
rhand -11.3235 22.9615
rfingers 7.12502
rthumb 14.7089 -6.49665
lclavicle -6.12257e-014 -2.3059e-014
lhumerus -29.7362 -8.82821 84.7758
lradius 114.864
lwrist 26.5485
lhand -17.4663 9.65276
lfingers 7.12502
lthumb 8.78536 39.4499
rfemur -39.7573 -6.70587 19.0494
rtibia 71.9297
rfoot -0.898639 0.683079
rtoes -10.8945
lfemur -3.22581 -3.2654 -29.6617
ltibia 36.2589
lfoot -6.18091 1.11101
ltoes -14.1414
155
root 7.87018 17.5052 19.2746 10.1109 38.2537 5.07287
lowerback 9.84351 -0.840284 -4.98996
upperback 0.998462 -1.56579 1.62654
thorax -4.29952 -0.668451 4.72585
lowerneck -22.0089 -2.43315 -7.53997
upperneck 13.0253 -1.90693 4.9827
head 7.72353 -0.792156 2.6409
rclavicle 8.46823e-014 -2.8625e-014
rhumerus -52.5518 14.0548 -94.4326
rradius 111.663
rwrist -14.2733
rhand -11.0475 23.2875
rfingers 7.12502
rthumb 14.9748 -6.15111
lclavicle 8.46823e-014 -2.8625e-014
lhumerus -29.806 -8.78096 85.0048
lradius 114.684
lwrist 26.0294
lhand -16.8811 9.68574
lfingers 7.12502
lthumb 9.35011 39.4584
rfemur -39.7484 -5.67385 19.6238
rtibia 67.9079
rfoot -1.71905 0.219665
rtoes -8.91013
lfemur -1.95747 -2.72562 -29.2609
ltibia 35.1481
lfoot -2.70043 0.392016
ltoes -11.9039
156
root 8.08948 17.6062 19.5848 10.1333 37.5909 4.82017
lowerback 9.53484 -0.834723 -4.9931
upperback 0.903075 -1.54088 1.76185
thorax -4.22631 -0.65605 4.85969
lowerneck -22.1619 -2.29383 -7.53846
upperneck 13.2075 -1.69647 4.90417
head 7.79491 -0.700065 2.64326
rclavicle -1.41137e-014 1.19271e-014
rhumerus -53.0989 13.8967 -94.269
rradius 111.869
rwrist -14.2227
rhand -11.144 23.5535
rfingers 7.12502
rthumb 14.8818 -5.89201
lclavicle -1.41137e-014 1.19271e-014
lhumerus -29.7257 -8.94082 85.2403
lradius 114.363
lwrist 25.3065
lhand -17.0519 9.92146
lfingers 7.12502
lthumb 9.18529 39.7014
rfemur -39.6628 -4.63288 20.0958
rtibia 63.7689
rfoot -2.73651 -0.643919
rtoes -4.83046
lfemur -0.726011 -2.58339 -29.0008
ltibia 33.8018
lfoot -0.18306 -1.65951
ltoes -11.4472
157
root 8.32258 17.7029 19.9177 10.5318 37.5251 5.19511
lowerback 9.0463 -0.996845 -5.28861
upperback 0.781365 -1.76742 1.75362
thorax -4.04506 -0.767577 5.03283
lowerneck -22.164 -2.20479 -7.49914
upperneck 13.4063 -1.56952 4.78184
head 7.85208 -0.652345 2.61394
rclavicle 8.28932e-014 -1.51076e-014
rhumerus -53.833 13.7321 -94.2454
rradius 112.157
rwrist -14.676
rhand -11.4711 23.3923
rfingers 7.12502
rthumb 14.5666 -6.07624
lclavicle 8.28932e-014 -1.51076e-014
lhumerus -30.1395 -9.39263 85.3438
lradius 114.246
lwrist 24.7303
lhand -17.7264 9.98316
lfingers 7.12502
lthumb 8.53439 39.7907
rfemur -39.2026 -4.45212 20.0949
rtibia 59.5402
rfoot -3.68414 -1.03674
rtoes -6.36035
lfemur 0.752284 -3.12872 -29.2106
ltibia 32.1575
lfoot 4.01095 -1.59033
ltoes -9.23739
